<svg width="133" height="185" viewBox="0 0 133 185" fill="none" xmlns="http://www.w3.org/2000/svg">
<path fill-rule="evenodd" clip-rule="evenodd" d="M80.995 31.7824L91.0606 3.16824C83.6066 1.19129 75.6584 0.202827 67.2159 0.202827C55.4399 0.202827 44.6879 2.25083 34.9599 6.34682C25.2319 10.4428 17.4666 16.4162 11.6639 24.2668C6.0319 32.1175 3.2159 41.5895 3.2159 52.6828C3.2159 60.0215 4.41057 66.6775 6.7999 72.6508C9.18924 78.4535 12.6879 83.5735 17.2959 88.0108C22.0746 92.2775 27.9626 95.8615 34.9599 98.7628C40.9809 101.113 47.8234 102.957 55.4871 104.295L65.4115 76.0827C59.9249 74.8645 55.0651 73.5499 50.8319 72.1388C45.1999 70.0908 40.8479 67.4455 37.7759 64.2028C34.8746 60.7895 33.4239 56.5228 33.4239 51.4028C33.4239 47.1362 34.7039 43.3815 37.2639 40.1388C39.8239 36.8962 43.5786 34.3362 48.5279 32.4588C53.6479 30.5815 59.8772 29.6428 67.2159 29.6428C71.492 29.6428 76.085 30.356 80.995 31.7824ZM29.4722 178.25C21.8013 175.077 14.4146 170.427 7.3119 164.299C5.09324 162.422 3.38657 160.288 2.1919 157.899C0.997236 155.51 0.399902 153.12 0.399902 150.731C0.399902 146.806 1.76524 143.392 4.4959 140.491C7.39724 137.419 10.9812 135.883 15.2479 135.883C18.4906 135.883 21.3919 136.907 23.9519 138.955C29.2384 143.268 34.4683 146.73 39.6414 149.341L29.4722 178.25Z" fill="#5CFF5C"/>
<path fill-rule="evenodd" clip-rule="evenodd" d="M53.1855 153.954L43.2 182.341C50.4982 183.814 58.4028 184.55 66.9137 184.55C78.519 184.55 89.271 182.416 99.1697 178.15C109.239 173.883 117.346 167.739 123.49 159.718C129.634 151.696 132.706 142.139 132.706 131.046C132.706 122.342 131.426 115.003 128.866 109.03C126.306 102.886 122.466 97.8511 117.346 93.9258C112.226 89.8298 105.74 86.5018 97.8897 83.9418C92.4256 82.1204 86.3135 80.4718 79.5536 78.996L69.7763 106.791C74.9235 107.91 79.4306 109.254 83.2977 110.822C89.6124 113.211 94.3057 116.198 97.3777 119.782C100.45 123.366 101.986 127.718 101.986 132.838C101.986 137.104 100.364 140.944 97.1217 144.358C93.879 147.6 89.6124 150.246 84.3217 152.294C79.031 154.171 73.2284 155.11 66.9137 155.11C61.9284 155.11 57.3524 154.725 53.1855 153.954ZM104.566 7.89126C111.13 10.689 116.67 14.0232 121.186 17.8938C126.135 21.8191 128.61 26.3418 128.61 31.4618C128.61 35.2165 127.159 38.6298 124.258 41.7018C121.356 44.7738 117.943 46.3098 114.018 46.3098C111.458 46.3098 109.154 45.5418 107.106 44.0058C104.375 41.6165 100.706 39.3978 96.0977 37.3498C95.559 37.0904 95.0167 36.8369 94.471 36.5891L104.566 7.89126Z" fill="#00B9B9"/>
</svg>
